<?xml version="1.0" encoding="UTF-8" standalone="no"?>
<!DOCTYPE svg PUBLIC "-//W3C//DTD SVG 1.1//EN"
 "http://www.w3.org/Graphics/SVG/1.1/DTD/svg11.dtd">
<!-- Generated by graphviz version 2.49.3 (20211023.0002)
 -->
<!-- Title: dependency&#45;cruiser output Pages: 1 -->
<svg width="110pt" height="110pt"
 viewBox="0.00 0.00 110.00 110.00" xmlns="http://www.w3.org/2000/svg" xmlns:xlink="http://www.w3.org/1999/xlink">
<g id="graph0" class="graph" transform="scale(1 1) rotate(0) translate(4 106)">
<title>dependency&#45;cruiser output</title>
<polygon fill="white" stroke="transparent" points="-4,4 -4,-106 106,-106 106,4 -4,4"/>
<g id="clust1" class="cluster">
<title>cluster_src</title>
<path fill="#ffffff" stroke="black" stroke-width="2" d="M20,-8C20,-8 82,-8 82,-8 88,-8 94,-14 94,-20 94,-20 94,-82 94,-82 94,-88 88,-94 82,-94 82,-94 20,-94 20,-94 14,-94 8,-88 8,-82 8,-82 8,-20 8,-20 8,-14 14,-8 20,-8"/>
<text text-anchor="middle" x="51" y="-82.8" font-family="Helvetica,sans-Serif" font-weight="bold" font-size="9.00">src</text>
</g>
<g id="clust2" class="cluster">
<title>cluster_src/pages</title>
<path fill="#ffffff" stroke="black" stroke-width="2" d="M28,-16C28,-16 74,-16 74,-16 80,-16 86,-22 86,-28 86,-28 86,-56 86,-56 86,-62 80,-68 74,-68 74,-68 28,-68 28,-68 22,-68 16,-62 16,-56 16,-56 16,-28 16,-28 16,-22 22,-16 28,-16"/>
<text text-anchor="middle" x="51" y="-56.8" font-family="Helvetica,sans-Serif" font-weight="bold" font-size="9.00">pages</text>
</g>
<!-- src/pages/_error.js -->
<g id="node1" class="node">
<title>src/pages/_error.js</title>
<g id="a_node1"><a xlink:href="src/pages/_error.js" xlink:title="_error.js">
<path fill="#ccffcc" stroke="black" d="M72,-42C72,-42 30,-42 30,-42 27,-42 24,-39 24,-36 24,-36 24,-30 24,-30 24,-27 27,-24 30,-24 30,-24 72,-24 72,-24 75,-24 78,-27 78,-30 78,-30 78,-36 78,-36 78,-39 75,-42 72,-42"/>
<text text-anchor="middle" x="51" y="-30.8" font-family="Helvetica,sans-Serif" font-size="9.00">_error.js</text>
</a>
</g>
</g>
</g>
</svg>
